<svg id="Layer_1" data-name="Layer 1" xmlns="http://www.w3.org/2000/svg" ><defs><style>.cls-1{fill:#fff;fill-rule:evenodd;}</style></defs><title>icon-vk-hover</title><path class="cls-1" d="M37.81,1.7c-.51-.37-2.33-.37-4.13-.37a24.68,24.68,0,0,0-4.12.2c-.4.15-1.28,2.27-2.42,4.44-1.32,2.46-2.92,4.84-3.93,4.8-1.34,0-1-4-.92-7C22.3,1.79,22,1.16,21.7,1A11.49,11.49,0,0,0,19.09,0s-5.75-.42-6.56,2c1.11.15,3-.19,2.26,7.42-.06.37-.89,3.49-3.56-.73C10.56,7.7,8,1.36,7.1,1.33,4.15,1.27,1.22,1.14.2,1.7S1.48,6.61,5.26,12.44c3.06,4.8,6.31,8.52,12,9.45,1.07.11,3.82.22,4.7-.19.58-.28-.15-4.4,1.86-4.81.88-.17,4.32,4.31,5.62,4.81a12.66,12.66,0,0,0,4.29.37c1.91-.05,4.09.19,4.3-1.11.47-2.85-5.81-6.57-6-8.31-.15-1.27,2.3-3.59,3.54-5.38C37.08,5.12,38.77,2.52,37.81,1.7Z" transform="translate(0.02 -0.01)"/></svg>