<svg xmlns="http://www.w3.org/2000/svg"><path d="M34.402 5.47a8.065 8.065 0 0 0-1.394-3.58A4.947 4.947 0 0 0 29.544.35c-4.86-.36-12.149-.36-12.149-.36h-.039s-7.269 0-12.13.36a4.929 4.929 0 0 0-3.483 1.54A8.072 8.072 0 0 0 .35 5.47a54.663 54.663 0 0 0-.359 5.81v2.76a53.678 53.678 0 0 0 .359 5.81 8.2 8.2 0 0 0 1.393 3.6 5.68 5.68 0 0 0 3.843 1.54c2.769.28 11.809.38 11.809.38s7.289-.04 12.149-.38a4.859 4.859 0 0 0 3.464-1.54 8.2 8.2 0 0 0 1.394-3.6 56.8 56.8 0 0 0 .339-5.81v-2.76a57.84 57.84 0 0 0-.339-5.81zM23.177 12.3l-9.4 5.04V7.21l4.257 2.31z" fill="#555" fill-rule="evenodd"/></svg>