<svg id="Layer_1" data-name="Layer 1" xmlns="http://www.w3.org/2000/svg" ><defs><style>.cls-1{fill:#fff;fill-rule:evenodd;}</style></defs><title>icon-twitter-hover</title><path class="cls-1" d="M34.76,3.26a15.67,15.67,0,0,1-4.09,1.1A6.94,6.94,0,0,0,33.82.51,14.48,14.48,0,0,1,29.28,2.2,7.16,7.16,0,0,0,24.06,0a7,7,0,0,0-7.13,6.92,7.06,7.06,0,0,0,.21,1.58A20.31,20.31,0,0,1,2.44,1.27a6.79,6.79,0,0,0,2.19,9.25,7,7,0,0,1-3.22-.86v.1a6.45,6.45,0,0,0,.48,2.49,7.13,7.13,0,0,0,5.24,4.28,7,7,0,0,1-1.88.26,6,6,0,0,1-1.34-.15,7.19,7.19,0,0,0,6.65,4.84,14.51,14.51,0,0,1-8.83,3A16.37,16.37,0,0,1,0,24.34a20.69,20.69,0,0,0,10.93,3.11A19.77,19.77,0,0,0,30.75,11.93a18.93,18.93,0,0,0,.47-4.18v-.9A14.55,14.55,0,0,0,34.76,3.26Z" transform="translate(-0.01 -0.01)"/></svg>