<svg xmlns="http://www.w3.org/2000/svg" ><path d="M37.81 1.7c-.51-.37-2.33-.37-4.13-.37a25.431 25.431 0 0 0-4.12.2c-.4.15-1.28 2.27-2.42 4.44-1.32 2.46-2.92 4.84-3.93 4.8-1.34 0-1.02-4.04-.92-7.03.01-1.95-.31-2.58-.59-2.75a11.427 11.427 0 0 0-2.61-.95s-5.75-.42-6.56 2.03c1.11.15 2.99-.19 2.26 7.42-.06.37-.89 3.49-3.56-.73C10.56 7.7 8 1.36 7.1 1.33c-2.95-.06-5.88-.19-6.9.37-.96.56 1.28 4.91 5.06 10.74 3.06 4.8 6.31 8.52 11.95 9.45 1.07.11 3.82.22 4.7-.19.58-.28-.15-4.4 1.86-4.81.88-.17 4.32 4.31 5.62 4.81a12.554 12.554 0 0 0 4.29.37c1.91-.05 4.09.19 4.3-1.11.47-2.85-5.81-6.57-5.98-8.31-.15-1.27 2.3-3.59 3.54-5.38 1.54-2.15 3.23-4.75 2.27-5.57z" fill="#555" fill-rule="evenodd"/></svg>