<svg id="Layer_1" data-name="Layer 1" xmlns="http://www.w3.org/2000/svg" ><defs><style>.cls-1{fill:#fff;fill-rule:evenodd;}</style></defs><title>icon-youtube-hover</title><path class="cls-1" d="M34.4,5.47A8.11,8.11,0,0,0,33,1.89,5,5,0,0,0,29.54.35C24.68,0,17.4,0,17.4,0h0S10.09,0,5.23.35A5,5,0,0,0,1.74,1.89,8.11,8.11,0,0,0,.35,5.47,56.45,56.45,0,0,0,0,11.28V14a56.45,56.45,0,0,0,.36,5.81,8.24,8.24,0,0,0,1.39,3.6A5.68,5.68,0,0,0,5.59,25c2.76.28,11.81.38,11.81.38s7.28,0,12.14-.38A4.86,4.86,0,0,0,33,23.45a8.24,8.24,0,0,0,1.39-3.6A56.42,56.42,0,0,0,34.74,14V11.28A56.42,56.42,0,0,0,34.4,5.47ZM23.18,12.3l-9.4,5V7.21L18,9.52Z" transform="translate(0.01 0.01)"/></svg>