<svg id="Layer_1" data-name="Layer 1" xmlns="http://www.w3.org/2000/svg"><defs><style>.cls-1{fill:#fff;fill-rule:evenodd;}</style></defs><title>icon-google-hover</title><path class="cls-1" d="M19.59,21.57c-1-.87-2-1.63-3-2.47a2.19,2.19,0,0,1-.72-3,1.83,1.83,0,0,1,.42-.5,24.41,24.41,0,0,1,2-1.89,7.23,7.23,0,0,0,1.18-9.62A26.54,26.54,0,0,0,17.6,1.87,6.18,6.18,0,0,0,23,.3c-3.61,0-7,0-10.47,0A12.31,12.31,0,0,0,7.38,1.53C2.66,3.76.91,9.34,3.72,13.35c1.65,2.35,4,3.16,6.8,3.12.33,0,1.14-.42.85.52-.51,1.64.05,3,1.22,4.5-.64,0-1,0-1.29,0-3.11.35-6.2.77-8.76,2.84-3.6,2.91-3.31,7.63.61,10.06,4.25,2.62,12.46,2,16.25-1.33S23.38,25,19.59,21.57ZM8.51,13.14a10.29,10.29,0,0,1-2-7.37A4.28,4.28,0,0,1,14,3.28a10.53,10.53,0,0,1,2.67,6.53c0,2.91-.89,4.36-2.88,5.08A4.46,4.46,0,0,1,8.51,13.14Zm10.71,16.4a4.45,4.45,0,0,1-2.83,3.71,9.29,9.29,0,0,1-4.22.8,10.43,10.43,0,0,1-5.82-1.64A4.77,4.77,0,0,1,7,24a13.29,13.29,0,0,1,6.66-1.24C16.09,22.86,19.48,27.09,19.22,29.54ZM27.9,11.45V7.19H23.62V4.25H27.9V0h2.86V4.25h4.3V7.19h-4.3v4.26Z" transform="translate(-0.01 0.01)"/></svg>