<svg xmlns="http://www.w3.org/2000/svg"><path d="M34.761 3.26a15.519 15.519 0 0 1-4.089 1.1A6.932 6.932 0 0 0 33.819.51a14.477 14.477 0 0 1-4.541 1.69A7.137 7.137 0 0 0 24.057.01a7.035 7.035 0 0 0-7.124 6.92 7.141 7.141 0 0 0 .208 1.58 20.315 20.315 0 0 1-14.7-7.24 6.785 6.785 0 0 0 2.187 9.25 7.005 7.005 0 0 1-3.222-.86v.1a6.484 6.484 0 0 0 .489 2.49 7.094 7.094 0 0 0 5.24 4.28 6.99 6.99 0 0 1-1.885.26 6.643 6.643 0 0 1-1.339-.15 7.2 7.2 0 0 0 6.654 4.84 14.543 14.543 0 0 1-8.839 2.96 16.4 16.4 0 0 1-1.714-.1 20.716 20.716 0 0 0 10.93 3.11 19.773 19.773 0 0 0 19.805-15.52 18.809 18.809 0 0 0 .471-4.18v-.9a14.487 14.487 0 0 0 3.543-3.59z" fill="#555" fill-rule="evenodd"/></svg>