<svg xmlns="http://www.w3.org/2000/svg"><path d="M19.591 21.57c-.962-.87-2.034-1.63-3.026-2.47a2.191 2.191 0 0 1-.309-3.51 25.977 25.977 0 0 1 2.058-1.89 7.236 7.236 0 0 0 1.18-9.62 28.627 28.627 0 0 0-1.892-2.21A6.169 6.169 0 0 0 22.982.3c-3.61 0-7.042-.03-10.473.01a12.353 12.353 0 0 0-5.125 1.22C2.656 3.76.907 9.34 3.723 13.35c1.647 2.35 4.038 3.16 6.8 3.12.326 0 1.139-.42.845.52-.508 1.64.05 2.99 1.22 4.5-.64 0-.966-.04-1.287 0-3.111.35-6.2.77-8.764 2.84-3.6 2.91-3.31 7.63.615 10.06 4.25 2.62 12.461 1.95 16.249-1.33 3.896-3.37 3.974-8.02.19-11.49zM8.512 13.14a10.292 10.292 0 0 1-1.993-7.37 4.277 4.277 0 0 1 7.489-2.49 10.529 10.529 0 0 1 2.675 6.53c.03 2.91-.89 4.36-2.883 5.08a4.454 4.454 0 0 1-5.288-1.75zm10.707 16.4a4.436 4.436 0 0 1-2.831 3.71 9.256 9.256 0 0 1-4.216.8 10.523 10.523 0 0 1-5.826-1.64 4.778 4.778 0 0 1 .6-8.44 13.225 13.225 0 0 1 6.661-1.24c2.481.13 5.877 4.36 5.612 6.81zm8.684-18.09V7.19h-4.28V4.25h4.28V-.01h2.857v4.26h4.3v2.94h-4.3v4.26h-2.857z" fill="#555" fill-rule="evenodd"/></svg>